<svg width="228" height="48" viewBox="0 0 228 48" fill="none" xmlns="http://www.w3.org/2000/svg">
<path d="M66.2 27.4295V23.617H74.74V32.706C74.0487 33.8243 72.9405 34.719 71.4155 35.39C69.9108 36.0407 68.2435 36.366 66.4135 36.366C64.2378 36.366 62.3062 35.8882 60.6185 34.9325C58.9308 33.9565 57.6193 32.5942 56.684 30.8455C55.7487 29.0765 55.281 27.0635 55.281 24.8065C55.281 22.5088 55.7588 20.4958 56.7145 18.7675C57.6905 17.0188 59.0122 15.6667 60.6795 14.711C62.3672 13.7553 64.248 13.2775 66.322 13.2775C67.7047 13.2775 68.9653 13.491 70.104 13.918C71.263 14.3247 72.239 14.9042 73.032 15.6565C73.825 16.4088 74.3943 17.2628 74.74 18.2185L71.08 20.323C70.6327 19.3877 69.9922 18.6557 69.1585 18.127C68.3248 17.578 67.3387 17.3035 66.2 17.3035C65.0003 17.3035 63.9227 17.6085 62.967 18.2185C62.0113 18.8285 61.259 19.7028 60.71 20.8415C60.161 21.9598 59.8865 23.2815 59.8865 24.8065C59.8865 26.3315 60.161 27.6735 60.71 28.8325C61.2793 29.9712 62.0723 30.8455 63.089 31.4555C64.126 32.0655 65.3257 32.3705 66.688 32.3705C67.4607 32.3705 68.1622 32.2688 68.7925 32.0655C69.4228 31.8418 69.9617 31.5063 70.409 31.059V27.4295H66.2ZM82.7822 13.674V32.035H92.9387V36H78.3597V13.674H82.7822ZM118.134 13.674V36H113.925V21.604L108.252 30.0525H105.934L100.231 21.543V36H96.0521V13.674H99.5596L107.185 25.2335L114.779 13.674H118.134ZM122.249 25.02H133.687V28.558H122.249V25.02ZM137.811 36V13.674H142.233V36H137.811ZM164.311 19.8045C165.856 19.8045 167.097 20.384 168.032 21.543C168.988 22.6817 169.465 24.3287 169.465 26.484V36H165.317V27.9175C165.317 26.5552 165.124 25.4978 164.738 24.7455C164.372 23.9728 163.762 23.5865 162.908 23.5865C162.339 23.5865 161.84 23.7593 161.413 24.105C160.986 24.4507 160.651 24.959 160.407 25.63C160.163 26.301 160.041 27.1143 160.041 28.07V36H155.923V27.9175C155.923 26.5552 155.73 25.4978 155.344 24.7455C154.978 23.9728 154.368 23.5865 153.514 23.5865C152.945 23.5865 152.446 23.7695 152.019 24.1355C151.592 24.4812 151.257 24.9895 151.013 25.6605C150.789 26.3315 150.677 27.1347 150.677 28.07V36H146.529V20.201H150.159C150.24 21.1363 150.322 21.909 150.403 22.519C150.932 21.604 151.582 20.9228 152.355 20.4755C153.128 20.0282 153.982 19.8045 154.917 19.8045C155.974 19.8045 156.899 20.079 157.692 20.628C158.506 21.177 159.106 21.9903 159.492 23.068C160.021 21.97 160.692 21.1567 161.505 20.628C162.339 20.079 163.274 19.8045 164.311 19.8045ZM179.867 19.8045C181.981 19.8045 183.638 20.4145 184.838 21.6345C186.058 22.8342 186.668 24.5523 186.668 26.789V36H183.1C183.018 35.1257 182.947 34.5258 182.886 34.2005C182.418 34.9325 181.808 35.4815 181.056 35.8475C180.324 36.1932 179.429 36.366 178.372 36.366C177.294 36.366 176.298 36.1728 175.383 35.7865C174.468 35.4002 173.746 34.841 173.218 34.109C172.689 33.3567 172.425 32.4722 172.425 31.4555C172.425 29.9915 172.974 28.7918 174.072 27.8565C175.19 26.9212 176.613 26.3925 178.342 26.2705C180.09 26.1282 181.829 26.4332 183.557 27.1855L182.49 28.253V27.1245C182.51 25.7825 182.256 24.8065 181.727 24.1965C181.198 23.5865 180.456 23.2815 179.501 23.2815C178.687 23.2815 178.006 23.4645 177.457 23.8305C176.908 24.1762 176.461 24.6845 176.115 25.3555L173.096 23.617C173.645 22.4377 174.509 21.5125 175.688 20.8415C176.888 20.1502 178.281 19.8045 179.867 19.8045ZM179.043 33.133C179.633 33.133 180.182 33.0212 180.69 32.7975C181.219 32.5738 181.646 32.2383 181.971 31.791C182.317 31.3437 182.49 30.815 182.49 30.205V29.595C181.331 29.29 180.314 29.168 179.44 29.229C178.565 29.2697 177.884 29.473 177.396 29.839C176.928 30.205 176.695 30.6828 176.695 31.2725C176.695 31.8418 176.908 32.2993 177.335 32.645C177.782 32.9703 178.352 33.133 179.043 33.133ZM205.622 20.201V34.3835C205.622 37.5758 204.819 39.8837 203.213 41.307C201.607 42.7303 199.614 43.442 197.235 43.442C195.486 43.442 193.961 43.076 192.66 42.344C191.359 41.612 190.433 40.5953 189.884 39.294L193.148 37.4335C193.555 38.2062 194.093 38.7755 194.764 39.1415C195.456 39.5278 196.279 39.721 197.235 39.721C198.272 39.721 199.085 39.5177 199.675 39.111C200.285 38.7043 200.722 38.0943 200.986 37.281C201.251 36.4677 201.383 35.3595 201.383 33.9565L201.718 33.5905C201.19 34.5258 200.498 35.2273 199.644 35.695C198.811 36.1423 197.865 36.366 196.808 36.366C195.547 36.366 194.358 36.0407 193.239 35.39C192.121 34.719 191.216 33.7633 190.525 32.523C189.834 31.2623 189.488 29.7882 189.488 28.1005C189.488 26.3925 189.823 24.9082 190.494 23.6475C191.186 22.3868 192.091 21.4312 193.209 20.7805C194.348 20.1298 195.547 19.8045 196.808 19.8045C197.845 19.8045 198.78 20.0282 199.614 20.4755C200.448 20.9228 201.129 21.604 201.657 22.519C201.779 21.7463 201.861 20.9737 201.901 20.201H205.622ZM197.601 32.7365C198.272 32.7365 198.892 32.5738 199.461 32.2485C200.031 31.9232 200.488 31.4148 200.834 30.7235C201.2 30.0118 201.383 29.1375 201.383 28.1005C201.383 27.0635 201.2 26.2095 200.834 25.5385C200.488 24.8472 200.031 24.349 199.461 24.044C198.892 23.739 198.272 23.5865 197.601 23.5865C196.849 23.5865 196.188 23.7695 195.618 24.1355C195.069 24.4812 194.642 24.9895 194.337 25.6605C194.032 26.3315 193.88 27.1448 193.88 28.1005C193.88 29.0562 194.032 29.8797 194.337 30.571C194.642 31.2623 195.08 31.8012 195.649 32.1875C196.218 32.5535 196.869 32.7365 197.601 32.7365ZM216.451 19.8045C218.077 19.8045 219.47 20.2112 220.629 21.0245C221.808 21.8378 222.652 22.9663 223.161 24.41C223.669 25.8333 223.76 27.4397 223.435 29.229H212.943C213.085 30.022 213.329 30.6828 213.675 31.2115C214.021 31.7402 214.448 32.1367 214.956 32.401C215.485 32.6653 216.074 32.7975 216.725 32.7975C217.437 32.7975 218.067 32.645 218.616 32.34C219.165 32.0147 219.602 31.5368 219.928 30.9065L223.039 32.7365C222.612 33.8955 221.798 34.7902 220.599 35.4205C219.399 36.0508 218.047 36.366 216.542 36.366C215.119 36.366 213.797 36.0508 212.577 35.4205C211.357 34.7902 210.371 33.8447 209.619 32.584C208.887 31.3233 208.521 29.8085 208.521 28.0395C208.521 26.2908 208.887 24.7963 209.619 23.556C210.371 22.3157 211.347 21.3803 212.547 20.75C213.767 20.1197 215.068 19.8045 216.451 19.8045ZM216.329 23.251C215.78 23.251 215.281 23.373 214.834 23.617C214.387 23.861 214 24.2067 213.675 24.654C213.37 25.081 213.146 25.6198 213.004 26.2705H219.287C219.246 25.6198 219.084 25.0708 218.799 24.6235C218.535 24.1558 218.189 23.8102 217.762 23.5865C217.355 23.3628 216.878 23.251 216.329 23.251Z" fill="#161616"/>
<g clip-path="url(#clip0_13406_1807)">
<path d="M43.4384 7.49542H35.9186C35.5815 7.49542 35.2835 7.70087 35.145 8.02845L33.6521 11.451C34.379 12.3353 35.2548 14.1805 35.124 16.3666C34.825 21.3674 30.3063 22.5935 30.3063 22.5935L29.2843 21.4649L20.2315 42.2199C20.093 42.5683 20.3509 42.9991 20.7473 42.9991H28.0092C28.3463 42.9991 28.6443 42.7936 28.7828 42.4859L43.9542 8.29544C44.1127 7.90537 43.8348 7.49542 43.4384 7.49542Z" fill="url(#paint0_linear_13406_1807)"/>
<path d="M42.2951 38.3012L34.7466 34.0938C34.7275 34.0787 34.6893 34.1108 34.7094 34.126L40.1546 39.3786C40.1938 39.4241 40.2702 39.4383 40.3275 39.4373C41.2798 39.3247 42.1107 38.5691 42.2979 38.4262C42.3543 38.394 42.3342 38.3476 42.2951 38.3022V38.3012Z" fill="url(#paint1_linear_13406_1807)"/>
<path d="M33.6894 34.1108C33.6693 34.0805 33.5929 34.0815 33.5747 34.1288L31.3693 39.0899C31.333 39.1836 31.3541 39.2612 31.4133 39.337C34.7133 42.698 39.2062 40.9749 40.0391 40.6009C40.1145 40.5687 40.1317 40.475 40.0725 40.3983L33.6884 34.1099L33.6894 34.1108Z" fill="url(#paint2_linear_13406_1807)"/>
<path d="M18.5047 13.2641C17.988 13.0586 17.5792 12.9232 17.0768 12.6212C14.5046 13.4193 12.5896 15.488 12.3412 15.9964C12.984 15.6935 13.134 15.6253 14.0939 15.2807C10.3221 18.5054 11.1521 23.6453 11.1702 23.6103C11.4358 21.7016 12.1368 18.6029 14.9115 15.8667C15.9125 14.7761 18.1226 13.4298 18.5037 13.2631L18.5047 13.2641Z" fill="url(#paint3_linear_13406_1807)"/>
<path d="M33.7916 17.4308C34.0925 15.7153 33.2271 14.1673 33.0581 13.888C33.039 13.8691 33.0017 13.8511 32.9645 13.8511C32.7391 13.87 31.9482 13.9439 30.9138 14.4295C30.2557 14.7278 29.7476 15.1756 29.5594 15.3621C29.5031 15.399 29.5222 15.4738 29.5785 15.5117C32.1555 16.8542 31.3847 20.3042 31.3092 20.6403C31.3092 20.6529 31.3156 20.6593 31.3283 20.6593C31.5728 20.5475 33.4544 19.5033 33.7926 17.4327L33.7916 17.4308Z" fill="url(#paint4_linear_13406_1807)"/>
<path d="M29.2633 15.8194L29.1821 15.7796C28.9395 16.1611 28.6969 16.6421 28.6157 17.0833C28.4944 17.6447 28.4744 18.4675 28.6157 18.5271C29.5871 18.8481 30.4171 18.7477 31.0437 18.547C31.0637 18.547 31.0838 18.5271 31.0838 18.4864C30.8813 17.2026 30.2748 16.3003 29.2624 15.8184L29.2633 15.8194Z" fill="url(#paint5_linear_13406_1807)"/>
<path d="M15.3031 9.59819C15.3432 9.7563 15.7033 12.0853 19.287 12.7935C19.287 12.7935 18.478 15.2911 19.9202 18.6417C20.6891 17.7849 21.5134 17.1647 21.8983 16.894C20.9088 15.0572 21.3491 12.9961 21.3491 12.9961C21.3491 12.9961 21.3491 12.9961 21.3491 12.9971C21.3491 12.9971 21.3491 12.9961 21.3491 12.9952C21.6032 12.999 21.8668 12.9961 22.1428 12.9867C22.0884 13.5131 22.1113 14.0773 22.2717 14.6407C22.8353 16.6298 24.4514 17.4024 25.7236 17.6192C27.4638 17.9155 28.2356 17.1865 28.5833 16.5645C28.6205 16.4982 28.5603 16.4206 28.4868 16.4395C27.6491 16.6535 26.8191 16.5399 25.9729 15.7219C25.9624 15.7114 25.9509 15.701 25.9404 15.6906C24.6567 14.4134 25.758 12.234 27.5584 12.4943C28.6253 12.6487 29.2089 13.1732 29.5594 13.7564C29.6912 13.9618 29.7667 14.1483 29.823 14.3349C29.8421 14.3718 29.8985 14.3907 29.9357 14.3718C30.143 14.2411 30.5193 14.0357 30.6693 13.9618C30.6884 13.9429 30.7065 13.9249 30.7256 13.887C30.8011 13.5329 30.5814 12.5663 29.7934 11.7417C28.9137 10.8214 27.951 10.9208 27.951 10.9208C27.951 10.9208 28.164 10.7712 28.7046 10.7154C29.2461 10.6595 29.6692 10.7353 30.0895 10.8545C29.6626 10.2685 27.3636 8.55202 23.9222 9.41831C27.3932 8.13639 29.6435 9.33783 30.3885 10.0621C31.5375 11.1783 32.0084 12.7916 32.1364 13.4383C32.1364 13.4572 32.1736 13.4752 32.1927 13.4752C32.5881 13.4004 32.8699 13.3635 32.9826 13.3635C33.0017 13.3635 33.039 13.3445 33.039 13.3076C33.0017 12.394 32.8135 10.9577 32.0418 9.82068C30.6187 7.60336 26.9223 6.23718 23.3692 7.6204C19.8161 9.00363 18.7597 6.88003 18.6088 6.41423C18.6088 6.39529 18.5716 6.39529 18.5716 6.41423C18.5028 6.81376 18.5544 7.80502 19.158 8.73569C18.8887 8.68835 18.5763 8.60504 18.1742 8.45072C17.497 8.18941 16.839 7.64881 16.6508 7.48123C16.6317 7.46229 16.5944 7.48123 16.6135 7.50016C16.7071 7.89212 17.1589 9.53287 18.2506 10.26C18.3118 10.3054 18.8075 10.4209 19.4637 10.4948C18.1465 10.6955 16.7807 10.5573 15.305 9.59914L15.3031 9.59819Z" fill="url(#paint6_linear_13406_1807)"/>
<path d="M25.7961 14.1673C25.7961 14.8575 26.3606 15.417 27.0569 15.417C27.7532 15.417 28.3177 14.8575 28.3177 14.1673C28.3177 13.4771 27.7532 12.9175 27.0569 12.9175C26.3606 12.9175 25.7961 13.4771 25.7961 14.1673ZM26.6987 14.4466C26.4284 14.4466 26.2097 14.2127 26.2097 13.9249C26.2097 13.6371 26.4284 13.4032 26.6987 13.4032C26.969 13.4032 27.1878 13.6371 27.1878 13.9249C27.1878 14.2127 26.969 14.4466 26.6987 14.4466Z" fill="url(#paint7_linear_13406_1807)"/>
<path d="M17.4111 27.9275C16.9173 24.8543 17.8199 21.8919 18.9355 19.9728C19.0205 19.827 19.1103 19.685 19.2048 19.5468C18.7712 18.6502 17.8514 16.3486 18.4847 14.0631C16.1656 15.3346 14.0137 17.8814 13.1216 19.8535C12.1416 22.0207 11.75 24.3554 11.8274 26.549C12.1015 34.2803 19.1704 37.3279 20.9269 37.7322L22.0463 35.228C21.1323 34.5568 18.095 32.1775 17.412 27.9275H17.4111Z" fill="url(#paint8_linear_13406_1807)"/>
<path d="M22.4369 17.6873C19.3022 19.8961 18.7062 23.9218 19.455 27.2866C20.2716 30.9581 23.415 32.1889 23.415 32.1889L28.5173 20.8258L27.6586 19.6926C24.7894 19.6395 23.3195 18.8575 22.436 17.6873H22.4369Z" fill="url(#paint9_linear_13406_1807)"/>
</g>
<defs>
<linearGradient id="paint0_linear_13406_1807" x1="32.0971" y1="6.36025" x2="32.0971" y2="42.3278" gradientUnits="userSpaceOnUse">
<stop stop-color="#5693FC"/>
<stop offset="0.34" stop-color="#4D83FF"/>
<stop offset="1" stop-color="#364ECF"/>
</linearGradient>
<linearGradient id="paint1_linear_13406_1807" x1="38.5185" y1="6.36024" x2="38.5185" y2="42.3278" gradientUnits="userSpaceOnUse">
<stop stop-color="#5693FC"/>
<stop offset="0.34" stop-color="#4D83FF"/>
<stop offset="1" stop-color="#364ECF"/>
</linearGradient>
<linearGradient id="paint2_linear_13406_1807" x1="35.7305" y1="6.36023" x2="35.7305" y2="42.3278" gradientUnits="userSpaceOnUse">
<stop stop-color="#5693FC"/>
<stop offset="0.34" stop-color="#4D83FF"/>
<stop offset="1" stop-color="#364ECF"/>
</linearGradient>
<linearGradient id="paint3_linear_13406_1807" x1="14.7921" y1="6.36027" x2="14.7921" y2="42.3278" gradientUnits="userSpaceOnUse">
<stop stop-color="#5693FC"/>
<stop offset="0.34" stop-color="#4D83FF"/>
<stop offset="1" stop-color="#364ECF"/>
</linearGradient>
<linearGradient id="paint4_linear_13406_1807" x1="31.6894" y1="6.36028" x2="31.6894" y2="42.3278" gradientUnits="userSpaceOnUse">
<stop stop-color="#5693FC"/>
<stop offset="0.34" stop-color="#4D83FF"/>
<stop offset="1" stop-color="#364ECF"/>
</linearGradient>
<linearGradient id="paint5_linear_13406_1807" x1="29.801" y1="6.36025" x2="29.801" y2="42.3278" gradientUnits="userSpaceOnUse">
<stop stop-color="#5693FC"/>
<stop offset="0.34" stop-color="#4D83FF"/>
<stop offset="1" stop-color="#364ECF"/>
</linearGradient>
<linearGradient id="paint6_linear_13406_1807" x1="24.1706" y1="6.36026" x2="24.1706" y2="42.3278" gradientUnits="userSpaceOnUse">
<stop stop-color="#5693FC"/>
<stop offset="0.34" stop-color="#4D83FF"/>
<stop offset="1" stop-color="#364ECF"/>
</linearGradient>
<linearGradient id="paint7_linear_13406_1807" x1="27.056" y1="6.36025" x2="27.056" y2="42.3278" gradientUnits="userSpaceOnUse">
<stop stop-color="#5693FC"/>
<stop offset="0.34" stop-color="#4D83FF"/>
<stop offset="1" stop-color="#364ECF"/>
</linearGradient>
<linearGradient id="paint8_linear_13406_1807" x1="16.9316" y1="6.36024" x2="16.9316" y2="42.3278" gradientUnits="userSpaceOnUse">
<stop stop-color="#5693FC"/>
<stop offset="0.34" stop-color="#4D83FF"/>
<stop offset="1" stop-color="#364ECF"/>
</linearGradient>
<linearGradient id="paint9_linear_13406_1807" x1="23.841" y1="6.36023" x2="23.841" y2="42.3278" gradientUnits="userSpaceOnUse">
<stop stop-color="#5693FC"/>
<stop offset="0.34" stop-color="#4D83FF"/>
<stop offset="1" stop-color="#364ECF"/>
</linearGradient>
<clipPath id="clip0_13406_1807">
<rect width="40" height="36.6" fill="white" transform="translate(4 6.40002)"/>
</clipPath>
</defs>
</svg>
